<svg width="24" height="24" viewBox="0 0 24 24" fill="none" xmlns="http://www.w3.org/2000/svg">
<path d="M22 11.3752C22.0001 11.9731 21.8287 12.5584 21.5061 13.0618C21.1835 13.5652 20.7233 13.9655 20.18 14.2152C19.9623 13.8331 19.6884 13.4859 19.3675 13.1852C19.8476 13.0544 20.256 12.7383 20.503 12.3063C20.7499 11.8744 20.8152 11.3621 20.6844 10.8821C20.5536 10.402 20.2375 9.99358 19.8056 9.74662C19.3737 9.49966 18.8613 9.43439 18.3813 9.56518C18.2949 9.58859 18.2045 9.59318 18.1162 9.57863C18.0278 9.56408 17.9437 9.53072 17.8694 9.48083C17.7951 9.43093 17.7323 9.36565 17.6854 9.28942C17.6385 9.21318 17.6086 9.12775 17.5975 9.03893C17.5091 8.32308 17.2162 7.64792 16.7538 7.09437C16.2914 6.54082 15.6791 6.13237 14.9904 5.91798C14.3018 5.70359 13.5659 5.69236 12.8709 5.88564C12.176 6.07891 11.5516 6.46849 11.0725 7.00768C10.5384 6.98316 10.0032 7.02007 9.47754 7.11768C9.9569 6.23494 10.6909 5.51696 11.584 5.0572C12.4771 4.59744 13.4879 4.41719 14.4849 4.53993C15.4819 4.66266 16.4188 5.08269 17.1737 5.74533C17.9286 6.40797 18.4666 7.28254 18.7175 8.25518C19.1406 8.23383 19.5635 8.2987 19.9607 8.44584C20.3579 8.59299 20.721 8.81934 21.028 9.11114C21.335 9.40295 21.5795 9.75411 21.7466 10.1433C21.9137 10.5325 21.9999 10.9516 22 11.3752Z" fill="#666666"/>
<path d="M10.7499 8.25C12.1337 8.24973 13.4691 8.75957 14.5006 9.68201C15.5321 10.6045 16.1874 11.8748 16.3412 13.25H16.3749C17.2037 13.25 17.9986 13.5792 18.5846 14.1653C19.1707 14.7513 19.4999 15.5462 19.4999 16.375C19.4999 17.2038 19.1707 17.9987 18.5846 18.5847C17.9986 19.1708 17.2037 19.5 16.3749 19.5H5.74991C4.7816 19.5007 3.85055 19.1269 3.15164 18.4567C2.45274 17.7865 2.04015 16.872 2.00026 15.9045C1.96036 14.937 2.29625 13.9916 2.93761 13.2662C3.57897 12.5407 4.47608 12.0915 5.44116 12.0125C5.82744 10.9128 6.54565 9.96017 7.49661 9.28619C8.44756 8.61222 9.58433 8.25015 10.7499 8.25ZM15.1249 13.875C15.1256 12.8094 14.7374 11.7802 14.0332 10.9805C13.3289 10.1808 12.357 9.66561 11.2998 9.53167C10.2427 9.39772 9.17301 9.6542 8.29154 10.253C7.41008 10.8517 6.77746 11.7516 6.51241 12.7837C6.47654 12.9234 6.39347 13.0464 6.27728 13.1319C6.16109 13.2173 6.01893 13.2599 5.87491 13.2525C5.54285 13.2378 5.2112 13.2894 4.89933 13.4043C4.58747 13.5193 4.30166 13.6953 4.05863 13.922C3.81559 14.1488 3.62021 14.4217 3.48391 14.7248C3.3476 15.028 3.27312 15.3553 3.26481 15.6875C3.2565 16.0198 3.31453 16.3504 3.4355 16.66C3.55648 16.9696 3.73797 17.2519 3.96937 17.4905C4.20077 17.7291 4.47742 17.9192 4.78315 18.0496C5.08887 18.18 5.41753 18.2481 5.74991 18.25H16.3749C16.6408 18.2494 16.9035 18.1922 17.1455 18.0824C17.3876 17.9725 17.6036 17.8124 17.7791 17.6126C17.9546 17.4129 18.0856 17.1782 18.1634 16.924C18.2412 16.6698 18.2641 16.4019 18.2306 16.1382C18.197 15.8744 18.1077 15.6209 17.9686 15.3943C17.8296 15.1677 17.6439 14.9733 17.424 14.8239C17.204 14.6745 16.9549 14.5736 16.693 14.5279C16.4311 14.4822 16.1624 14.4927 15.9049 14.5588C15.8118 14.5826 15.7145 14.5846 15.6205 14.5648C15.5265 14.5449 15.4383 14.5036 15.3629 14.4441C15.2874 14.3846 15.2267 14.3085 15.1854 14.2217C15.1441 14.135 15.1234 14.0398 15.1249 13.9438V13.875Z" fill="#666666"/>
</svg>
