<svg width="24" height="24" viewBox="0 0 24 24" fill="none" xmlns="http://www.w3.org/2000/svg">
<path d="M12 2.5C17.2466 2.5 21.5 6.75339 21.5 12C21.5 17.2466 17.2466 21.5 12 21.5C6.75339 21.5 2.5 17.2466 2.5 12C2.5 6.75339 6.75339 2.5 12 2.5Z" stroke="#666666"/>
<path d="M17.0295 9.46909C16.8887 9.32868 16.6978 9.24996 16.4989 9.25024C16.3001 9.25053 16.1095 9.32978 15.969 9.47059L12.7673 12.6813L10.8503 10.5928C10.7811 10.5174 10.6972 10.457 10.6037 10.4152C10.5103 10.3734 10.4093 10.3512 10.3069 10.35C10.2046 10.3487 10.1031 10.3684 10.0086 10.4079C9.91417 10.4473 9.8288 10.5057 9.75776 10.5793L6.96026 13.4793C6.82215 13.6225 6.74656 13.8146 6.75012 14.0135C6.75368 14.2124 6.83611 14.4017 6.97926 14.5398C7.12241 14.6779 7.31456 14.7535 7.51344 14.75C7.71233 14.7464 7.90165 14.664 8.03976 14.5208L10.284 12.1943L12.1923 14.2733C12.2607 14.348 12.3436 14.408 12.4359 14.4497C12.5282 14.4914 12.628 14.514 12.7293 14.5161C12.8306 14.5182 12.9313 14.4998 13.0252 14.4619C13.1192 14.4241 13.2045 14.3676 13.276 14.2958L17.031 10.5296C17.1714 10.3887 17.2501 10.1979 17.2498 9.99902C17.2496 9.80015 17.1703 9.60953 17.0295 9.46909Z" fill="#666666"/>
</svg>
