<svg width="24" height="24" viewBox="0 0 24 24" fill="none" xmlns="http://www.w3.org/2000/svg">
<path d="M15.0003 6.50031C15.0002 5.91375 15.2064 5.34583 15.5827 4.89593C15.9591 4.44602 16.4817 4.14278 17.059 4.03925C17.6364 3.93572 18.2318 4.03851 18.741 4.32962C19.2502 4.62073 19.6409 5.08162 19.8446 5.63167C20.0484 6.18172 20.0522 6.78589 19.8555 7.33849C19.6587 7.89108 19.274 8.3569 18.7685 8.65446C18.263 8.95201 17.669 9.06235 17.0903 8.96617C16.5117 8.86998 15.9853 8.5734 15.6033 8.12831L8.88527 11.2483C9.03971 11.7378 9.03971 12.2629 8.88527 12.7523L15.6033 15.8723C16.0071 15.4026 16.5709 15.0996 17.1855 15.022C17.8 14.9443 18.4215 15.0976 18.9294 15.452C19.4374 15.8065 19.7957 16.3369 19.9349 16.9404C20.0741 17.544 19.9843 18.1778 19.6829 18.7189C19.3814 19.26 18.8898 19.67 18.3033 19.8693C17.7169 20.0686 17.0773 20.0431 16.5085 19.7977C15.9398 19.5524 15.4824 19.1046 15.225 18.5412C14.9676 17.9778 14.9285 17.3389 15.1153 16.7483L8.39727 13.6283C8.0647 14.0159 7.62142 14.2923 7.12704 14.4204C6.63267 14.5485 6.11093 14.5221 5.632 14.3448C5.15308 14.1675 4.73994 13.8477 4.44817 13.4286C4.1564 13.0095 4 12.511 4 12.0003C4 11.4896 4.1564 10.9912 4.44817 10.572C4.73994 10.1529 5.15308 9.83315 5.632 9.65584C6.11093 9.47852 6.63267 9.45214 7.12704 9.58023C7.62142 9.70832 8.0647 9.98474 8.39727 10.3723L15.1153 7.25231C15.0388 7.00898 15 6.75538 15.0003 6.50031Z" fill="#232323"/>
</svg>
