<svg width="24" height="24" viewBox="0 0 24 24" fill="none" xmlns="http://www.w3.org/2000/svg">
<g clip-path="url(#clip0_275_169)">
<path d="M15.7419 14.3441C16.7102 13.0228 17.1439 11.3846 16.9562 9.75725C16.7685 8.12991 15.9733 6.63344 14.7297 5.56723C13.486 4.50102 11.8857 3.9437 10.2488 4.00678C8.61184 4.06985 7.05911 4.74866 5.90119 5.90741C4.74327 7.06615 4.06557 8.61938 4.00367 10.2563C3.94177 11.8933 4.50023 13.4933 5.56733 14.7361C6.63443 15.979 8.13147 16.7732 9.75894 16.9597C11.3864 17.1462 13.0243 16.7113 14.3449 15.7421H14.3439C14.3739 15.7821 14.4059 15.8201 14.4419 15.8571L18.2919 19.7071C18.4794 19.8947 18.7338 20.0002 18.9991 20.0003C19.2643 20.0004 19.5188 19.8951 19.7064 19.7076C19.8941 19.5201 19.9995 19.2657 19.9996 19.0005C19.9997 18.7352 19.8944 18.4807 19.7069 18.2931L15.8569 14.4431C15.8212 14.4069 15.7827 14.3745 15.7419 14.3441ZM15.9999 10.5001C15.9999 11.2224 15.8577 11.9376 15.5813 12.6049C15.3049 13.2722 14.8997 13.8785 14.389 14.3892C13.8783 14.8999 13.272 15.305 12.6047 15.5814C11.9374 15.8578 11.2222 16.0001 10.4999 16.0001C9.77765 16.0001 9.06245 15.8578 8.39516 15.5814C7.72787 15.305 7.12156 14.8999 6.61083 14.3892C6.10011 13.8785 5.69498 13.2722 5.41858 12.6049C5.14218 11.9376 4.99992 11.2224 4.99992 10.5001C4.99992 9.04141 5.57938 7.64246 6.61083 6.61101C7.64228 5.57956 9.04123 5.0001 10.4999 5.0001C11.9586 5.0001 13.3576 5.57956 14.389 6.61101C15.4205 7.64246 15.9999 9.04141 15.9999 10.5001Z" fill="#666666"/>
</g>
<defs>
<clipPath id="clip0_275_169">
<rect width="16" height="16" fill="white" transform="translate(4 4)"/>
</clipPath>
</defs>
</svg>
