<svg width="36" height="36" viewBox="0 0 36 36" fill="none" xmlns="http://www.w3.org/2000/svg">
<path d="M17.3409 30.3182C15.7803 30.3182 14.3864 30.0492 13.1591 29.5114C11.9394 28.9735 10.9735 28.2273 10.2614 27.2727C9.55682 26.3106 9.17803 25.197 9.125 23.9318H12.6932C12.7386 24.6212 12.9697 25.2197 13.3864 25.7273C13.8106 26.2273 14.3636 26.6136 15.0455 26.8864C15.7273 27.1591 16.4848 27.2955 17.3182 27.2955C18.2348 27.2955 19.0455 27.1364 19.75 26.8182C20.4621 26.5 21.0189 26.0568 21.4205 25.4886C21.822 24.9129 22.0227 24.25 22.0227 23.5C22.0227 22.7197 21.822 22.0341 21.4205 21.4432C21.0265 20.8447 20.447 20.375 19.6818 20.0341C18.9242 19.6932 18.0076 19.5227 16.9318 19.5227H14.9659V16.6591H16.9318C17.7955 16.6591 18.553 16.5038 19.2045 16.1932C19.8636 15.8826 20.3788 15.4508 20.75 14.8977C21.1212 14.3371 21.3068 13.6818 21.3068 12.9318C21.3068 12.2121 21.1439 11.5871 20.8182 11.0568C20.5 10.5189 20.0455 10.0985 19.4545 9.79545C18.8712 9.49242 18.1818 9.34091 17.3864 9.34091C16.6288 9.34091 15.9205 9.48106 15.2614 9.76136C14.6098 10.0341 14.0795 10.428 13.6705 10.9432C13.2614 11.4508 13.0417 12.0606 13.0114 12.7727H9.61364C9.65152 11.5152 10.0227 10.4091 10.7273 9.45454C11.4394 8.5 12.3788 7.75379 13.5455 7.21591C14.7121 6.67803 16.0076 6.40909 17.4318 6.40909C18.9242 6.40909 20.2121 6.70076 21.2955 7.28409C22.3864 7.85985 23.2273 8.62879 23.8182 9.59091C24.4167 10.553 24.7121 11.6061 24.7045 12.75C24.7121 14.053 24.3485 15.1591 23.6136 16.0682C22.8864 16.9773 21.9167 17.5871 20.7045 17.8977V18.0795C22.25 18.3144 23.447 18.928 24.2955 19.9205C25.1515 20.9129 25.5758 22.1439 25.5682 23.6136C25.5758 24.8939 25.2197 26.0417 24.5 27.0568C23.7879 28.072 22.8144 28.8712 21.5795 29.4545C20.3447 30.0303 18.9318 30.3182 17.3409 30.3182Z" fill="white"/>
</svg>
