<svg width="36" height="36" viewBox="0 0 36 36" fill="none" xmlns="http://www.w3.org/2000/svg">
<path d="M10.2386 30V27.4545L18.1136 19.2955C18.9545 18.4091 19.6477 17.6326 20.1932 16.9659C20.7462 16.2917 21.1591 15.6515 21.4318 15.0455C21.7045 14.4394 21.8409 13.7955 21.8409 13.1136C21.8409 12.3409 21.6591 11.6742 21.2955 11.1136C20.9318 10.5455 20.4356 10.1098 19.8068 9.80682C19.178 9.49621 18.4697 9.34091 17.6818 9.34091C16.8485 9.34091 16.1212 9.51136 15.5 9.85227C14.8788 10.1932 14.4015 10.6742 14.0682 11.2955C13.7348 11.9167 13.5682 12.6439 13.5682 13.4773H10.2159C10.2159 12.0606 10.5417 10.822 11.1932 9.76136C11.8447 8.70076 12.7386 7.87879 13.875 7.29545C15.0114 6.70454 16.303 6.40909 17.75 6.40909C19.2121 6.40909 20.5 6.70076 21.6136 7.28409C22.7348 7.85985 23.6098 8.64773 24.2386 9.64773C24.8674 10.6402 25.1818 11.7614 25.1818 13.0114C25.1818 13.875 25.0189 14.7197 24.6932 15.5455C24.375 16.3712 23.8182 17.2917 23.0227 18.3068C22.2273 19.3144 21.1212 20.5379 19.7045 21.9773L15.0795 26.8182V26.9886H25.5568V30H10.2386Z" fill="white"/>
</svg>
