<svg width="16" height="16" viewBox="0 0 16 16" fill="none" xmlns="http://www.w3.org/2000/svg">
<path d="M13.8448 2.15696C12.3051 0.617268 9.81227 0.612893 8.27258 2.15258L8.2682 2.15696L6.15071 4.27461C6.09461 4.33071 6.09461 4.42133 6.15071 4.48164L6.87524 5.20617C6.93133 5.26227 7.02617 5.26227 7.08227 5.20617L9.19992 3.08867C10.179 2.10961 11.8351 2.0018 12.9176 3.08867C14.0045 4.17555 13.9009 5.82743 12.9176 6.80633L10.7999 8.92383C10.7438 8.97993 10.7438 9.07055 10.7999 9.13086L11.5245 9.85539C11.5805 9.91149 11.6754 9.91149 11.7315 9.85539L13.8491 7.73789C15.3845 6.19821 15.3845 3.70102 13.8448 2.15696ZM9.13086 10.7999C9.07477 10.7438 8.97992 10.7438 8.92383 10.7999L6.80617 12.9176C5.82711 13.8966 4.17102 14.0045 3.08852 12.9176C2.00164 11.8307 2.10946 10.1788 3.08852 9.19992L5.20617 7.08243C5.26227 7.02633 5.26227 6.93571 5.20617 6.87539L4.48164 6.15086C4.42555 6.09477 4.33492 6.09477 4.27461 6.15086L2.15696 8.26836C0.617268 9.80383 0.612893 12.3009 2.15258 13.8406L2.15696 13.8449C3.69664 15.3846 6.19383 15.3846 7.73352 13.8493L7.73789 13.8449L9.85555 11.7274C9.91164 11.6713 9.91164 11.5807 9.85555 11.5204L9.13086 10.7999Z" fill="#232323"/>
<path d="M9.79051 5.45613C9.73441 5.40004 9.63957 5.40004 9.58348 5.45613L5.45613 9.58363C5.40004 9.63973 5.40004 9.73035 5.45613 9.79066L6.17644 10.5108C6.23254 10.5669 6.32738 10.5669 6.38348 10.5108L10.5108 6.38348C10.5669 6.32738 10.5669 6.23676 10.5108 6.17644L9.79051 5.45613Z" fill="#232323"/>
</svg>
