<svg width="1063" height="458" viewBox="0 0 1063 458" fill="none" xmlns="http://www.w3.org/2000/svg">
<g opacity="0.6">
<path opacity="0.0526316" d="M1062.1 170.564C1180 97.017 1253.12 16.2127 1276.05 -54.9649C1298.98 -126.146 1271.71 -187.654 1188.97 -222.699C1106.22 -257.744 983.554 -259.744 852.008 -234.566C720.469 -209.389 580.143 -157.05 462.238 -83.5033C344.333 -9.95652 271.214 70.8478 248.284 142.025C225.354 213.207 252.626 274.714 335.368 309.759C418.11 344.804 540.78 346.804 672.326 321.626C803.865 296.45 944.191 244.11 1062.1 170.564Z" stroke="url(#paint0_linear_1_3031)"/>
<path opacity="0.105263" d="M1065.89 158.783C1180.26 87.438 1251.19 9.0533 1273.44 -59.9923C1295.68 -129.042 1269.23 -188.705 1188.97 -222.699C1108.71 -256.693 989.713 -258.633 862.107 -234.209C734.508 -209.787 598.384 -159.015 484.009 -87.6703C369.635 -16.3255 298.705 62.0591 276.462 131.105C254.219 200.154 280.674 259.817 360.934 293.811C441.195 327.805 560.187 329.746 687.793 305.322C815.391 280.899 951.516 230.127 1065.89 158.783Z" stroke="url(#paint1_linear_1_3031)"/>
<path opacity="0.157895" d="M1069.69 147.002C1180.53 77.8595 1249.27 1.89447 1270.83 -65.0192C1292.38 -131.937 1266.74 -189.756 1188.97 -222.698C1111.19 -255.641 995.874 -257.522 872.208 -233.852C748.549 -210.184 616.627 -160.98 505.782 -91.8368C394.938 -22.6941 326.197 53.271 304.642 120.185C283.085 187.102 308.724 244.921 386.502 277.864C464.28 310.806 579.595 312.688 703.261 289.018C826.919 265.35 958.842 216.145 1069.69 147.002Z" stroke="url(#paint2_linear_1_3031)"/>
<path opacity="0.210526" d="M1073.48 135.22C1180.8 68.2791 1247.35 -5.26629 1268.22 -70.048C1289.09 -134.834 1264.26 -190.808 1188.97 -222.699C1113.67 -254.591 1002.03 -256.413 882.308 -233.497C762.589 -210.583 634.869 -162.946 527.554 -96.0053C420.239 -29.0645 353.689 44.4809 332.82 109.263C311.95 174.048 336.773 230.023 412.069 261.914C487.365 293.805 599.002 295.628 718.728 272.712C838.447 249.798 966.167 202.161 1073.48 135.22Z" stroke="url(#paint3_linear_1_3031)"/>
<path opacity="0.263158" d="M1077.28 123.44C1181.06 58.7016 1245.42 -12.4242 1265.6 -75.074C1285.79 -137.728 1261.78 -191.858 1188.97 -222.698C1116.15 -253.538 1008.19 -255.301 892.407 -233.14C776.628 -210.979 653.11 -164.91 549.325 -100.171C445.541 -35.4321 381.18 35.6937 360.998 98.3435C340.815 160.997 364.822 215.127 437.636 245.967C510.449 276.807 618.408 278.57 734.194 256.409C849.973 234.249 973.492 188.179 1077.28 123.44Z" stroke="url(#paint4_linear_1_3031)"/>
<path opacity="0.315789" d="M1081.07 111.658C1181.33 49.1211 1243.5 -19.585 1262.99 -80.1029C1282.49 -140.625 1259.3 -192.911 1188.97 -222.699C1118.64 -252.488 1014.35 -254.192 902.508 -232.785C790.669 -211.379 671.353 -166.876 571.098 -104.339C470.844 -41.8026 408.673 26.9036 389.178 87.4214C369.681 147.943 392.872 200.229 463.204 230.018C533.536 259.807 637.816 261.51 749.662 240.103C861.502 218.697 980.818 174.195 1081.07 111.658Z" stroke="url(#paint5_linear_1_3031)"/>
<path opacity="0.368421" d="M1084.87 99.877C1181.59 39.5422 1241.57 -26.7444 1260.38 -85.1303C1279.19 -143.52 1256.82 -193.962 1188.97 -222.699C1121.12 -251.437 1020.51 -253.081 912.608 -232.428C804.708 -211.776 689.594 -168.841 592.869 -108.506C496.145 -48.1716 436.164 18.1149 417.355 76.5008C398.546 134.891 420.92 185.332 488.77 214.07C556.62 242.807 657.223 244.452 765.129 223.799C873.028 203.147 988.143 160.212 1084.87 99.877Z" stroke="url(#paint6_linear_1_3031)"/>
<path opacity="0.421053" d="M1088.66 88.0965C1181.86 29.9637 1239.65 -33.9032 1257.77 -90.1572C1275.89 -146.415 1254.33 -195.013 1188.97 -222.699C1123.6 -250.385 1026.67 -251.97 922.707 -232.071C818.748 -212.173 707.835 -170.806 614.641 -112.673C521.447 -54.5401 463.656 9.32677 445.534 65.5807C427.411 121.839 448.969 170.436 514.337 198.122C579.705 225.809 676.629 227.394 780.596 207.495C884.555 187.597 995.468 146.229 1088.66 88.0965Z" stroke="url(#paint7_linear_1_3031)"/>
<path opacity="0.473684" d="M1092.46 76.3156C1182.12 20.3847 1237.72 -41.0626 1255.16 -95.1846C1272.59 -149.31 1251.85 -196.064 1188.97 -222.699C1126.08 -249.334 1032.83 -250.86 932.807 -231.715C832.787 -212.571 726.076 -172.771 636.412 -116.84C546.748 -60.9092 491.146 0.538118 473.711 54.6601C456.275 108.786 477.017 155.539 539.903 182.174C602.789 208.809 696.036 210.335 796.062 191.19C896.081 172.047 1002.79 132.246 1092.46 76.3156Z" stroke="url(#paint8_linear_1_3031)"/>
<path opacity="0.526316" d="M1096.25 64.5347C1182.39 10.8058 1235.8 -48.2219 1252.55 -100.212C1269.3 -152.206 1249.37 -197.115 1188.97 -222.699C1128.56 -248.282 1038.99 -249.749 942.908 -231.358C846.828 -212.969 744.319 -174.736 658.185 -121.007C572.051 -67.2782 518.639 -8.25051 501.891 43.7395C485.142 95.7334 505.068 140.642 565.471 166.226C625.875 191.81 715.444 193.277 811.53 174.886C907.61 156.496 1010.12 118.264 1096.25 64.5347Z" stroke="url(#paint9_linear_1_3031)"/>
<path opacity="0.578947" d="M1100.05 52.7537C1182.65 1.22678 1233.87 -55.3812 1249.94 -105.239C1266 -155.101 1246.89 -198.166 1188.97 -222.698C1131.04 -247.231 1045.15 -248.639 953.007 -231.002C860.868 -213.366 762.561 -176.701 679.956 -125.174C597.352 -73.6472 546.131 -17.0392 530.069 32.8189C514.007 82.6809 533.116 125.746 591.038 150.278C648.959 174.811 734.85 176.218 826.997 158.581C919.136 140.946 1017.44 104.281 1100.05 52.7537Z" stroke="url(#paint10_linear_1_3031)"/>
<path opacity="0.631579" d="M1103.84 40.9718C1182.92 -8.35317 1231.95 -62.5416 1247.32 -110.268C1262.7 -157.998 1244.41 -199.218 1188.97 -222.699C1133.53 -246.181 1051.31 -247.529 963.107 -230.646C874.907 -213.765 780.802 -178.667 701.728 -129.342C622.653 -80.0172 573.622 -25.8288 558.247 21.8974C542.871 69.6274 561.165 110.848 616.604 134.329C672.044 157.81 754.257 159.159 842.463 142.276C930.663 125.395 1024.77 90.2967 1103.84 40.9718Z" stroke="url(#paint11_linear_1_3031)"/>
<path opacity="0.684211" d="M1107.64 29.1923C1183.18 -17.9307 1230.03 -69.6994 1244.71 -115.294C1259.4 -160.892 1241.92 -200.268 1188.97 -222.698C1136.01 -245.128 1057.47 -246.417 973.208 -230.288C888.948 -214.161 799.045 -180.631 723.501 -133.508C647.957 -86.3847 601.115 -34.616 586.427 10.9783C571.738 56.5763 589.215 95.9525 642.172 118.382C695.13 140.812 773.665 142.102 857.932 125.973C942.192 109.846 1032.09 76.3153 1107.64 29.1923Z" stroke="url(#paint12_linear_1_3031)"/>
<path opacity="0.736842" d="M1111.43 17.4099C1183.45 -27.5111 1228.1 -76.8603 1242.1 -120.323C1256.1 -163.789 1239.44 -201.321 1188.97 -222.699C1138.49 -244.078 1063.63 -245.308 983.307 -229.933C902.987 -214.56 817.286 -182.597 745.272 -137.676C673.258 -92.7552 628.606 -43.4061 614.605 0.0561883C600.603 43.5223 617.263 81.0542 667.739 102.433C718.214 123.812 793.072 125.042 873.398 109.667C953.718 94.2938 1039.42 62.3309 1111.43 17.4099Z" stroke="url(#paint13_linear_1_3031)"/>
<path opacity="0.789474" d="M1115.23 5.62894C1183.71 -37.0901 1226.17 -84.0196 1239.49 -125.35C1252.8 -166.684 1236.96 -202.372 1188.97 -222.699C1140.97 -243.026 1069.79 -244.197 993.407 -229.577C917.027 -214.958 835.527 -184.562 767.043 -141.843C698.559 -99.1242 656.097 -52.1947 642.783 -10.8644C629.467 30.4698 645.312 66.1574 693.305 86.4848C741.299 106.812 812.478 107.983 888.865 93.3626C965.245 78.7435 1046.74 48.3479 1115.23 5.62894Z" stroke="url(#paint14_linear_1_3031)"/>
<path opacity="0.842105" d="M1119.02 -6.152C1183.98 -46.669 1224.25 -91.1789 1236.88 -130.377C1249.51 -169.579 1234.48 -203.423 1188.97 -222.699C1143.45 -241.975 1075.95 -243.087 1003.51 -229.22C931.066 -215.355 853.768 -186.527 788.814 -146.01C723.861 -105.493 683.588 -60.9834 670.961 -21.785C658.332 17.4172 673.36 51.2606 718.872 70.5368C764.383 89.8129 831.884 90.9246 904.331 77.0582C976.771 63.1932 1054.07 34.365 1119.02 -6.152Z" stroke="url(#paint15_linear_1_3031)"/>
<path opacity="0.894737" d="M1122.82 -17.933C1184.24 -56.248 1222.33 -98.3383 1234.27 -135.405C1246.21 -172.475 1232 -204.474 1188.97 -222.699C1145.94 -240.924 1082.11 -241.976 1013.61 -228.864C945.107 -215.753 872.012 -188.492 810.588 -150.177C749.164 -111.862 711.081 -69.772 699.14 -32.7056C687.199 4.36467 701.411 36.3638 744.44 54.5887C787.469 72.8135 851.293 73.866 919.8 60.7537C988.3 47.6428 1061.4 20.3821 1122.82 -17.933Z" stroke="url(#paint16_linear_1_3031)"/>
<path opacity="0.947368" d="M1126.61 -29.7149C1184.51 -65.8279 1220.4 -105.499 1231.65 -140.433C1242.91 -175.371 1229.51 -205.526 1188.97 -222.7C1148.42 -239.873 1088.27 -240.867 1023.71 -228.509C959.146 -216.152 890.253 -190.458 832.359 -154.345C774.465 -118.232 738.572 -78.5616 727.318 -43.6272C716.063 -8.68884 729.459 21.466 770.006 38.6396C810.553 55.8132 870.699 56.8065 935.266 44.4483C999.826 32.0915 1068.72 6.39818 1126.61 -29.7149Z" stroke="url(#paint17_linear_1_3031)"/>
<path d="M1130.41 -41.4944C1184.77 -75.4054 1218.48 -112.656 1229.04 -145.459C1239.61 -178.265 1227.03 -206.576 1188.97 -222.698C1150.9 -238.821 1094.43 -239.755 1033.81 -228.151C973.186 -216.548 908.494 -192.422 854.13 -158.511C799.766 -124.6 766.063 -87.3488 755.496 -54.5463C744.928 -21.7399 757.508 6.57069 795.573 22.693C833.638 38.8154 890.106 39.7494 950.733 28.1454C1011.35 16.5426 1076.04 -7.58328 1130.41 -41.4944Z" stroke="url(#paint18_linear_1_3031)"/>
</g>
<defs>
<linearGradient id="paint0_linear_1_3031" x1="334.944" y1="310.024" x2="656.317" y2="-448.744" gradientUnits="userSpaceOnUse">
<stop stop-color="#FF6565"/>
<stop offset="1" stop-color="#FF7272" stop-opacity="0"/>
</linearGradient>
<linearGradient id="paint1_linear_1_3031" x1="360.51" y1="294.076" x2="672.267" y2="-441.988" gradientUnits="userSpaceOnUse">
<stop stop-color="#FF6565"/>
<stop offset="1" stop-color="#FF7272" stop-opacity="0"/>
</linearGradient>
<linearGradient id="paint2_linear_1_3031" x1="386.078" y1="278.128" x2="688.219" y2="-435.232" gradientUnits="userSpaceOnUse">
<stop stop-color="#FF6565"/>
<stop offset="1" stop-color="#FF7272" stop-opacity="0"/>
</linearGradient>
<linearGradient id="paint3_linear_1_3031" x1="411.645" y1="262.179" x2="704.169" y2="-428.477" gradientUnits="userSpaceOnUse">
<stop stop-color="#FF6565"/>
<stop offset="1" stop-color="#FF7272" stop-opacity="0"/>
</linearGradient>
<linearGradient id="paint4_linear_1_3031" x1="437.211" y1="246.232" x2="720.119" y2="-421.72" gradientUnits="userSpaceOnUse">
<stop stop-color="#FF6565"/>
<stop offset="1" stop-color="#FF7272" stop-opacity="0"/>
</linearGradient>
<linearGradient id="paint5_linear_1_3031" x1="462.78" y1="230.283" x2="736.072" y2="-414.966" gradientUnits="userSpaceOnUse">
<stop stop-color="#FF6565"/>
<stop offset="1" stop-color="#FF7272" stop-opacity="0"/>
</linearGradient>
<linearGradient id="paint6_linear_1_3031" x1="488.346" y1="214.334" x2="752.022" y2="-408.21" gradientUnits="userSpaceOnUse">
<stop stop-color="#FF6565"/>
<stop offset="1" stop-color="#FF7272" stop-opacity="0"/>
</linearGradient>
<linearGradient id="paint7_linear_1_3031" x1="513.913" y1="198.387" x2="767.972" y2="-401.453" gradientUnits="userSpaceOnUse">
<stop stop-color="#FF6565"/>
<stop offset="1" stop-color="#FF7272" stop-opacity="0"/>
</linearGradient>
<linearGradient id="paint8_linear_1_3031" x1="539.479" y1="182.439" x2="783.922" y2="-394.697" gradientUnits="userSpaceOnUse">
<stop stop-color="#FF6565"/>
<stop offset="1" stop-color="#FF7272" stop-opacity="0"/>
</linearGradient>
<linearGradient id="paint9_linear_1_3031" x1="565.047" y1="166.491" x2="799.874" y2="-387.941" gradientUnits="userSpaceOnUse">
<stop stop-color="#FF6565"/>
<stop offset="1" stop-color="#FF7272" stop-opacity="0"/>
</linearGradient>
<linearGradient id="paint10_linear_1_3031" x1="590.614" y1="150.543" x2="815.825" y2="-381.185" gradientUnits="userSpaceOnUse">
<stop stop-color="#FF6565"/>
<stop offset="1" stop-color="#FF7272" stop-opacity="0"/>
</linearGradient>
<linearGradient id="paint11_linear_1_3031" x1="616.18" y1="134.594" x2="831.775" y2="-374.43" gradientUnits="userSpaceOnUse">
<stop stop-color="#FF6565"/>
<stop offset="1" stop-color="#FF7272" stop-opacity="0"/>
</linearGradient>
<linearGradient id="paint12_linear_1_3031" x1="641.748" y1="118.647" x2="847.727" y2="-367.673" gradientUnits="userSpaceOnUse">
<stop stop-color="#FF6565"/>
<stop offset="1" stop-color="#FF7272" stop-opacity="0"/>
</linearGradient>
<linearGradient id="paint13_linear_1_3031" x1="667.315" y1="102.698" x2="863.677" y2="-360.919" gradientUnits="userSpaceOnUse">
<stop stop-color="#FF6565"/>
<stop offset="1" stop-color="#FF7272" stop-opacity="0"/>
</linearGradient>
<linearGradient id="paint14_linear_1_3031" x1="692.881" y1="86.7494" x2="879.627" y2="-354.163" gradientUnits="userSpaceOnUse">
<stop stop-color="#FF6565"/>
<stop offset="1" stop-color="#FF7272" stop-opacity="0"/>
</linearGradient>
<linearGradient id="paint15_linear_1_3031" x1="718.447" y1="70.8014" x2="895.578" y2="-347.407" gradientUnits="userSpaceOnUse">
<stop stop-color="#FF6565"/>
<stop offset="1" stop-color="#FF7272" stop-opacity="0"/>
</linearGradient>
<linearGradient id="paint16_linear_1_3031" x1="744.016" y1="54.8533" x2="911.53" y2="-340.651" gradientUnits="userSpaceOnUse">
<stop stop-color="#FF6565"/>
<stop offset="1" stop-color="#FF7272" stop-opacity="0"/>
</linearGradient>
<linearGradient id="paint17_linear_1_3031" x1="769.582" y1="38.9043" x2="927.48" y2="-333.896" gradientUnits="userSpaceOnUse">
<stop stop-color="#FF6565"/>
<stop offset="1" stop-color="#FF7272" stop-opacity="0"/>
</linearGradient>
<linearGradient id="paint18_linear_1_3031" x1="795.149" y1="22.9577" x2="943.43" y2="-327.138" gradientUnits="userSpaceOnUse">
<stop stop-color="#FF6565"/>
<stop offset="1" stop-color="#FF7272" stop-opacity="0"/>
</linearGradient>
</defs>
</svg>
