<svg width="578" height="601" viewBox="0 0 578 601" fill="none" xmlns="http://www.w3.org/2000/svg">
<path opacity="0.0526316" d="M229.92 293.432C168.514 369.697 138.595 440.405 139.835 493.07C141.075 545.74 173.471 580.318 236.598 584.456C299.725 588.594 381.765 561.515 463.445 514.281C545.12 467.05 626.356 399.705 687.761 323.441C749.167 247.177 779.087 176.469 777.847 123.803C776.606 71.1336 744.21 36.5549 681.083 32.4173C617.956 28.2798 535.916 55.3579 454.236 102.593C372.562 149.824 291.326 217.168 229.92 293.432Z" stroke="url(#paint0_linear_1_156)"/>
<path opacity="0.105263" d="M230.125 302.154C170.559 376.134 141.535 444.724 142.738 495.811C143.941 546.903 175.367 580.443 236.598 584.456C297.829 588.47 377.408 562.205 456.641 516.385C535.867 470.57 614.67 405.243 674.237 331.262C733.804 257.282 762.827 188.692 761.624 137.605C760.421 86.5131 728.996 52.9726 667.765 48.9593C606.533 44.946 526.955 71.2109 447.722 117.03C368.495 162.846 289.692 228.173 230.125 302.154Z" stroke="url(#paint1_linear_1_156)"/>
<path opacity="0.157895" d="M230.331 310.874C172.603 382.57 144.476 449.042 145.642 498.551C146.808 548.065 177.262 580.567 236.598 584.456C295.933 588.345 373.051 562.893 449.836 518.489C526.615 474.089 602.985 410.779 660.713 339.083C718.441 267.386 746.567 200.914 745.402 151.405C744.236 101.892 713.781 69.3895 654.446 65.5004C595.11 61.6114 517.993 87.063 441.207 131.467C364.428 175.868 288.059 239.177 230.331 310.874Z" stroke="url(#paint2_linear_1_156)"/>
<path opacity="0.210526" d="M230.536 319.595C174.647 389.007 147.417 453.361 148.545 501.292C149.674 549.227 179.158 580.691 236.598 584.456C294.038 588.221 368.693 563.583 443.031 520.594C517.363 477.609 591.3 416.316 647.189 346.904C703.077 277.491 730.308 213.137 729.179 165.206C728.05 117.271 698.567 85.807 641.127 82.0422C583.687 78.2773 509.031 102.916 434.693 145.905C360.361 188.89 286.425 250.182 230.536 319.595Z" stroke="url(#paint3_linear_1_156)"/>
<path opacity="0.263158" d="M230.741 328.315C176.691 395.444 150.357 457.68 151.449 504.033C152.54 550.39 181.053 580.816 236.598 584.456C292.142 588.097 364.336 564.272 436.227 522.698C508.111 481.128 579.614 421.853 633.664 354.724C687.714 287.596 714.048 225.36 712.957 179.007C711.865 132.65 683.352 102.224 627.808 98.5835C572.264 94.943 500.07 118.768 428.179 160.342C356.294 201.912 284.791 261.187 230.741 328.315Z" stroke="url(#paint4_linear_1_156)"/>
<path opacity="0.315789" d="M230.946 337.037C178.735 401.881 153.298 461.999 154.352 506.774C155.407 551.553 182.949 580.94 236.597 584.457C290.246 587.973 359.979 564.961 429.422 524.803C498.859 484.648 567.929 427.39 620.14 362.546C672.351 297.701 697.789 237.583 696.734 192.808C695.68 148.03 668.138 118.642 614.489 115.126C560.84 111.609 491.108 134.621 421.665 174.779C352.227 214.934 283.157 272.192 230.946 337.037Z" stroke="url(#paint5_linear_1_156)"/>
<path opacity="0.368421" d="M231.152 345.757C180.78 408.317 156.239 466.317 157.256 509.514C158.273 552.715 184.844 581.064 236.597 584.456C288.35 587.848 355.621 565.649 422.617 526.906C489.607 488.167 556.244 432.927 606.616 370.366C656.988 307.805 681.529 249.805 680.512 206.609C679.494 163.408 652.923 135.058 601.17 131.666C549.417 128.274 482.146 150.473 415.15 189.216C348.161 227.955 281.524 283.196 231.152 345.757Z" stroke="url(#paint6_linear_1_156)"/>
<path opacity="0.421053" d="M231.357 354.478C182.824 414.755 159.179 470.636 160.159 512.255C161.14 553.878 186.74 581.189 236.597 584.457C286.455 587.725 351.264 566.339 415.813 529.011C480.355 491.687 544.558 438.464 593.092 378.187C641.625 317.91 665.269 262.029 664.289 220.41C663.309 178.788 637.709 151.476 587.851 148.209C537.994 144.941 473.185 166.326 408.636 203.654C344.094 240.978 279.89 294.201 231.357 354.478Z" stroke="url(#paint7_linear_1_156)"/>
<path opacity="0.473684" d="M231.562 363.198C184.868 421.191 162.12 474.955 163.063 514.995C164.006 555.04 188.635 581.313 236.597 584.456C284.559 587.6 346.907 567.028 409.008 531.115C471.103 495.207 532.873 444.001 579.567 386.008C626.262 328.015 649.01 274.251 648.067 234.211C647.124 194.166 622.494 167.893 574.532 164.75C526.571 161.606 464.223 182.178 402.122 218.091C340.027 254 278.256 305.205 231.562 363.198Z" stroke="url(#paint8_linear_1_156)"/>
<path opacity="0.526316" d="M231.769 371.919C186.914 427.628 165.063 479.274 165.968 517.736C166.874 556.203 190.533 581.437 236.599 584.457C282.665 587.476 342.551 567.717 402.205 533.22C461.853 498.727 521.19 449.538 566.045 393.829C610.9 338.12 632.752 286.474 631.846 248.012C630.94 209.546 607.282 184.311 561.216 181.292C515.149 178.272 455.263 198.031 395.609 232.528C335.962 267.022 276.625 316.21 231.769 371.919Z" stroke="url(#paint9_linear_1_156)"/>
<path opacity="0.578947" d="M231.975 380.64C188.958 434.065 168.003 483.592 168.872 520.477C169.74 557.365 192.428 581.561 236.599 584.456C280.769 587.351 338.194 568.406 395.4 535.324C452.601 502.246 509.505 455.075 552.521 401.649C595.537 348.224 616.492 298.697 615.624 261.813C614.755 224.924 592.067 200.728 547.897 197.833C503.726 194.938 446.302 213.883 389.095 246.965C331.895 280.043 274.991 327.215 231.975 380.64Z" stroke="url(#paint10_linear_1_156)"/>
<path opacity="0.631579" d="M232.18 389.361C191.002 440.502 170.944 487.911 171.775 523.217C172.607 558.527 194.324 581.686 236.599 584.457C278.874 587.227 333.837 569.095 388.596 537.429C443.349 505.766 497.819 460.612 538.997 409.47C580.174 358.329 600.233 310.92 599.401 275.614C598.57 240.304 576.853 217.145 534.578 214.375C492.303 211.604 437.34 229.736 382.581 261.403C327.828 293.066 273.357 338.219 232.18 389.361Z" stroke="url(#paint11_linear_1_156)"/>
<path opacity="0.684211" d="M232.385 398.081C193.047 446.938 173.885 492.23 174.679 525.958C175.473 559.69 196.219 581.81 236.599 584.456C276.978 587.103 329.479 569.784 381.791 539.533C434.097 509.285 486.134 466.148 525.473 417.291C564.811 368.434 583.973 323.142 583.179 289.414C582.384 255.682 561.638 233.562 521.259 230.916C480.88 228.269 428.378 245.588 376.067 275.84C323.761 306.087 271.724 349.224 232.385 398.081Z" stroke="url(#paint12_linear_1_156)"/>
<path opacity="0.736842" d="M232.59 406.802C195.091 453.375 176.825 496.549 177.582 528.699C178.339 560.852 198.115 581.934 236.598 584.457C275.082 586.979 325.122 570.473 374.986 541.637C424.844 512.805 474.449 471.686 511.948 425.112C549.448 378.539 567.713 335.365 566.956 303.216C566.199 271.062 546.424 249.98 507.94 247.458C469.457 244.935 419.417 261.441 369.552 290.277C319.694 319.109 270.09 360.229 232.59 406.802Z" stroke="url(#paint13_linear_1_156)"/>
<path opacity="0.789474" d="M232.795 415.523C197.135 459.812 179.766 500.867 180.486 531.439C181.206 562.015 200.01 582.058 236.598 584.456C273.186 586.854 320.764 571.162 368.181 543.741C415.592 516.324 462.763 477.222 498.424 432.933C534.084 388.643 551.454 347.588 550.734 317.016C550.014 286.441 531.209 266.397 494.621 263.999C458.033 261.601 410.455 277.293 363.038 304.714C315.627 332.131 268.456 371.233 232.795 415.523Z" stroke="url(#paint14_linear_1_156)"/>
<path opacity="0.8" d="M233.001 424.244C199.179 466.249 182.707 505.187 183.389 534.18C184.072 563.178 201.906 582.183 236.598 584.457C271.291 586.731 316.407 571.851 361.377 545.846C406.34 519.844 451.078 482.76 484.9 440.754C518.722 398.749 535.194 359.811 534.511 330.818C533.829 301.82 515.995 282.815 481.302 280.541C446.61 278.267 401.493 293.147 356.524 319.152C311.56 345.154 266.823 382.238 233.001 424.244Z" stroke="url(#paint15_linear_1_156)"/>
<path opacity="0.6" d="M233.206 432.964C201.223 472.685 185.647 509.505 186.293 536.92C186.939 564.339 203.802 582.307 236.598 584.456C269.395 586.606 312.05 572.54 354.572 547.95C397.088 523.363 439.393 488.296 471.376 448.574C503.358 408.853 518.935 372.033 518.289 344.618C517.643 317.199 500.78 299.231 467.984 297.082C435.187 294.932 392.532 308.998 350.01 333.588C307.494 358.175 265.189 393.242 233.206 432.964Z" stroke="url(#paint16_linear_1_156)"/>
<path opacity="0.4" d="M233.411 441.685C203.268 479.123 188.588 513.824 189.196 539.661C189.805 565.502 205.697 582.431 236.598 584.457C267.499 586.482 307.693 573.229 347.768 550.054C387.836 526.883 427.708 493.833 457.851 456.396C487.995 418.958 502.675 384.257 502.066 358.419C501.458 332.578 485.566 315.649 454.665 313.624C423.764 311.599 383.57 324.851 343.495 348.026C303.427 371.197 263.555 404.247 233.411 441.685Z" stroke="url(#paint17_linear_1_156)"/>
<path opacity="0.2" d="M233.617 450.406C205.312 485.559 191.529 518.143 192.1 542.402C192.671 566.665 207.593 582.555 236.598 584.457C265.603 586.358 303.335 573.918 340.963 552.159C378.584 530.403 416.022 499.37 444.327 464.216C472.632 429.062 486.415 396.479 485.844 372.22C485.273 347.957 470.351 332.066 441.346 330.165C412.341 328.264 374.608 340.704 336.981 362.463C299.36 384.219 261.921 415.252 233.617 450.406Z" stroke="url(#paint18_linear_1_156)"/>
<defs>
<linearGradient id="paint0_linear_1_156" x1="681.397" y1="32.0279" x2="643.414" y2="611.53" gradientUnits="userSpaceOnUse">
<stop stop-color="#FF6565"/>
<stop offset="1" stop-color="#FF7272" stop-opacity="0"/>
</linearGradient>
<linearGradient id="paint1_linear_1_156" x1="668.078" y1="48.5699" x2="631.232" y2="610.732" gradientUnits="userSpaceOnUse">
<stop stop-color="#FF6565"/>
<stop offset="1" stop-color="#FF7272" stop-opacity="0"/>
</linearGradient>
<linearGradient id="paint2_linear_1_156" x1="654.759" y1="65.111" x2="619.05" y2="609.933" gradientUnits="userSpaceOnUse">
<stop stop-color="#FF6565"/>
<stop offset="1" stop-color="#FF7272" stop-opacity="0"/>
</linearGradient>
<linearGradient id="paint3_linear_1_156" x1="641.44" y1="81.6527" x2="606.867" y2="609.135" gradientUnits="userSpaceOnUse">
<stop stop-color="#FF6565"/>
<stop offset="1" stop-color="#FF7272" stop-opacity="0"/>
</linearGradient>
<linearGradient id="paint4_linear_1_156" x1="628.122" y1="98.1941" x2="594.685" y2="608.336" gradientUnits="userSpaceOnUse">
<stop stop-color="#FF6565"/>
<stop offset="1" stop-color="#FF7272" stop-opacity="0"/>
</linearGradient>
<linearGradient id="paint5_linear_1_156" x1="614.803" y1="114.736" x2="582.503" y2="607.539" gradientUnits="userSpaceOnUse">
<stop stop-color="#FF6565"/>
<stop offset="1" stop-color="#FF7272" stop-opacity="0"/>
</linearGradient>
<linearGradient id="paint6_linear_1_156" x1="601.484" y1="131.277" x2="570.32" y2="606.739" gradientUnits="userSpaceOnUse">
<stop stop-color="#FF6565"/>
<stop offset="1" stop-color="#FF7272" stop-opacity="0"/>
</linearGradient>
<linearGradient id="paint7_linear_1_156" x1="588.165" y1="147.819" x2="558.138" y2="605.942" gradientUnits="userSpaceOnUse">
<stop stop-color="#FF6565"/>
<stop offset="1" stop-color="#FF7272" stop-opacity="0"/>
</linearGradient>
<linearGradient id="paint8_linear_1_156" x1="574.846" y1="164.36" x2="545.956" y2="605.143" gradientUnits="userSpaceOnUse">
<stop stop-color="#FF6565"/>
<stop offset="1" stop-color="#FF7272" stop-opacity="0"/>
</linearGradient>
<linearGradient id="paint9_linear_1_156" x1="561.529" y1="180.902" x2="533.775" y2="604.345" gradientUnits="userSpaceOnUse">
<stop stop-color="#FF6565"/>
<stop offset="1" stop-color="#FF7272" stop-opacity="0"/>
</linearGradient>
<linearGradient id="paint10_linear_1_156" x1="548.21" y1="197.443" x2="521.593" y2="603.546" gradientUnits="userSpaceOnUse">
<stop stop-color="#FF6565"/>
<stop offset="1" stop-color="#FF7272" stop-opacity="0"/>
</linearGradient>
<linearGradient id="paint11_linear_1_156" x1="534.891" y1="213.985" x2="509.411" y2="602.748" gradientUnits="userSpaceOnUse">
<stop stop-color="#FF6565"/>
<stop offset="1" stop-color="#FF7272" stop-opacity="0"/>
</linearGradient>
<linearGradient id="paint12_linear_1_156" x1="521.573" y1="230.526" x2="497.228" y2="601.949" gradientUnits="userSpaceOnUse">
<stop stop-color="#FF6565"/>
<stop offset="1" stop-color="#FF7272" stop-opacity="0"/>
</linearGradient>
<linearGradient id="paint13_linear_1_156" x1="508.254" y1="247.068" x2="485.046" y2="601.151" gradientUnits="userSpaceOnUse">
<stop stop-color="#FF6565"/>
<stop offset="1" stop-color="#FF7272" stop-opacity="0"/>
</linearGradient>
<linearGradient id="paint14_linear_1_156" x1="494.935" y1="263.609" x2="472.863" y2="600.352" gradientUnits="userSpaceOnUse">
<stop stop-color="#FF6565"/>
<stop offset="1" stop-color="#FF7272" stop-opacity="0"/>
</linearGradient>
<linearGradient id="paint15_linear_1_156" x1="481.616" y1="280.152" x2="460.681" y2="599.554" gradientUnits="userSpaceOnUse">
<stop stop-color="#FF6565"/>
<stop offset="1" stop-color="#FF7272" stop-opacity="0"/>
</linearGradient>
<linearGradient id="paint16_linear_1_156" x1="468.297" y1="296.692" x2="448.499" y2="598.755" gradientUnits="userSpaceOnUse">
<stop stop-color="#FF6565"/>
<stop offset="1" stop-color="#FF7272" stop-opacity="0"/>
</linearGradient>
<linearGradient id="paint17_linear_1_156" x1="454.978" y1="313.234" x2="436.317" y2="597.957" gradientUnits="userSpaceOnUse">
<stop stop-color="#FF6565"/>
<stop offset="1" stop-color="#FF7272" stop-opacity="0"/>
</linearGradient>
<linearGradient id="paint18_linear_1_156" x1="441.659" y1="329.776" x2="424.134" y2="597.158" gradientUnits="userSpaceOnUse">
<stop stop-color="#FF6565"/>
<stop offset="1" stop-color="#FF7272" stop-opacity="0"/>
</linearGradient>
</defs>
</svg>
