<svg width="36" height="36" viewBox="0 0 36 36" fill="none" xmlns="http://www.w3.org/2000/svg">
<circle cx="18" cy="18" r="18" fill="url(#paint0_linear_1_1281)"/>
<path d="M15.1193 24V22.7273L19.0568 18.6477C19.4773 18.2045 19.8239 17.8163 20.0966 17.483C20.3731 17.1458 20.5795 16.8258 20.7159 16.5227C20.8523 16.2197 20.9205 15.8977 20.9205 15.5568C20.9205 15.1705 20.8295 14.8371 20.6477 14.5568C20.4659 14.2727 20.2178 14.0549 19.9034 13.9034C19.589 13.7481 19.2348 13.6705 18.8409 13.6705C18.4242 13.6705 18.0606 13.7557 17.75 13.9261C17.4394 14.0966 17.2008 14.3371 17.0341 14.6477C16.8674 14.9583 16.7841 15.322 16.7841 15.7386H15.108C15.108 15.0303 15.2708 14.411 15.5966 13.8807C15.9223 13.3504 16.3693 12.9394 16.9375 12.6477C17.5057 12.3523 18.1515 12.2045 18.875 12.2045C19.6061 12.2045 20.25 12.3504 20.8068 12.642C21.3674 12.9299 21.8049 13.3239 22.1193 13.8239C22.4337 14.3201 22.5909 14.8807 22.5909 15.5057C22.5909 15.9375 22.5095 16.3598 22.3466 16.7727C22.1875 17.1856 21.9091 17.6458 21.5114 18.1534C21.1136 18.6572 20.5606 19.2689 19.8523 19.9886L17.5398 22.4091V22.4943H22.7784V24H15.1193Z" fill="white"/>
<defs>
<linearGradient id="paint0_linear_1_1281" x1="18" y1="35.9995" x2="18" y2="0.18832" gradientUnits="userSpaceOnUse">
<stop offset="0.03" stop-color="#CDD1D7"/>
<stop offset="1" stop-color="#EEEFF2"/>
</linearGradient>
</defs>
</svg>
