<svg width="16" height="16" viewBox="0 0 16 16" fill="none" xmlns="http://www.w3.org/2000/svg">
<g clip-path="url(#clip0_423_590)">
<path d="M15.3863 2.34655H12.1444V1.20189C12.1396 0.880864 12.0085 0.57467 11.7797 0.349688C11.5509 0.124705 11.2427 -0.000934474 10.9219 5.23359e-06H5.06244C4.7436 0.00339099 4.43839 0.129973 4.21059 0.353304C3.98279 0.576636 3.85001 0.879442 3.84 1.19846V2.34311H0.571769C0.420127 2.34311 0.274695 2.40341 0.167467 2.51075C0.0602398 2.61808 0 2.76365 0 2.91544C0 3.06723 0.0602398 3.21281 0.167467 3.32014C0.274695 3.42747 0.420127 3.48777 0.571769 3.48777H1.22016V14.1468C1.21953 14.3917 1.26753 14.6343 1.36135 14.8604C1.45518 15.0866 1.59296 15.2919 1.7667 15.4643C1.94044 15.6367 2.14668 15.7728 2.37342 15.8648C2.60017 15.9568 2.84291 16.0027 3.08755 16H12.922C13.4145 16.0021 13.8877 15.809 14.2383 15.4628C14.5889 15.1166 14.7883 14.6455 14.7928 14.1525V3.46945H15.4378C15.5132 3.47053 15.588 3.45647 15.6578 3.42809C15.7277 3.39971 15.7912 3.35759 15.8445 3.30423C15.8978 3.25087 15.9399 3.18734 15.9682 3.11742C15.9966 3.04749 16.0106 2.97258 16.0095 2.89713C15.9874 2.74655 15.9126 2.60871 15.7985 2.50811C15.6844 2.40751 15.5383 2.35067 15.3863 2.34769V2.34655ZM4.96296 2.37173V1.22708C4.96373 1.20047 4.97433 1.1751 4.99271 1.15586C5.01108 1.13662 5.03593 1.12488 5.06244 1.12291H10.9471C10.9729 1.12477 10.9971 1.13586 11.0154 1.15415C11.0336 1.17244 11.0447 1.1967 11.0466 1.2225V2.36715H4.96296V2.37173ZM13.6413 14.1285C13.6353 14.3228 13.5538 14.5072 13.4141 14.6423C13.2745 14.7774 13.0876 14.8526 12.8934 14.8519H3.06697C2.87273 14.8526 2.68589 14.7774 2.54622 14.6423C2.40654 14.5072 2.32505 14.3228 2.3191 14.1285V3.46945H13.6161C13.6413 4.19288 13.6413 10.6579 13.6413 14.1285Z" fill="#F32D2D"/>
<path d="M5.17162 11.8392C5.07596 11.7276 5.02164 11.5866 5.01776 11.4397C5.01389 11.2929 5.0607 11.1492 5.15034 11.0327L7.20221 8.99278L5.167 6.96025C5.06006 6.85321 5 6.70818 5 6.55698C5 6.40578 5.06006 6.26075 5.167 6.15371C5.27872 6.05796 5.42015 6.00372 5.56734 6.00018C5.71452 5.99665 5.8584 6.04403 5.97461 6.13431L8.00982 8.17792L10.0265 6.17311C10.1341 6.06698 10.2792 6.00747 10.4303 6.00747C10.5815 6.00747 10.7266 6.06698 10.8341 6.17311C10.9404 6.2805 11 6.4254 11 6.57638C11 6.72736 10.9404 6.87226 10.8341 6.97965L8.8202 8.99093L10.8341 11.0096C10.9404 11.117 11 11.2619 11 11.4129C11 11.5639 10.9404 11.7088 10.8341 11.8161C10.7266 11.9223 10.5815 11.9818 10.4303 11.9818C10.2792 11.9818 10.1341 11.9223 10.0265 11.8161L8.00889 9.80117L5.97368 11.8337C5.92054 11.8866 5.85749 11.9285 5.78812 11.957C5.71875 11.9856 5.64443 12.0002 5.56941 12C5.42083 12.0006 5.27796 11.9429 5.17162 11.8392Z" fill="#F32D2D"/>
</g>
<defs>
<clipPath id="clip0_423_590">
<rect width="16" height="16" fill="white"/>
</clipPath>
</defs>
</svg>
