<svg width="24" height="24" viewBox="0 0 24 24" fill="none" xmlns="http://www.w3.org/2000/svg">
<path d="M14.875 17.625C15.9636 17.625 17.0287 17.3092 17.9413 16.7158C18.8539 16.1224 19.5747 15.277 20.0163 14.282C20.4579 13.2871 20.6014 12.1854 20.4292 11.1105C20.2571 10.0357 19.7768 9.03389 19.0466 8.22662C18.3164 7.41934 17.3676 6.84128 16.3153 6.56254C15.2631 6.2838 14.1526 6.31637 13.1185 6.65628C12.0844 6.99619 11.1711 7.62885 10.4894 8.47753C9.80778 9.32621 9.387 10.3544 9.27815 11.4375H7.00002C7.00002 10.99 6.82223 10.5607 6.50576 10.2443C6.18929 9.9278 5.76006 9.75001 5.31251 9.75001H4.18751C3.73995 9.75001 3.31073 9.9278 2.99426 10.2443C2.67779 10.5607 2.5 10.99 2.5 11.4375V12.5625C2.5 13.0101 2.67779 13.4393 2.99426 13.7558C3.31073 14.0722 3.73995 14.25 4.18751 14.25H5.31251C5.76006 14.25 6.18929 14.0722 6.50576 13.7558C6.82223 13.4393 7.00002 13.0101 7.00002 12.5625H9.27815C9.4176 13.95 10.0674 15.2362 11.1016 16.1717C12.1358 17.1071 13.4806 17.6251 14.875 17.625Z" fill="#FF7652"/>
</svg>
